<svg xmlns="http://www.w3.org/2000/svg" xml:space="preserve" viewBox="0 0 500 481.3"><linearGradient id="a" x1="336.166" x2="336.166" y1="934.554" y2="842.472" gradientTransform="translate(0 -578.724)" gradientUnits="userSpaceOnUse"><stop offset="0" style="stop-color:#4e4bfc"/><stop offset="1" style="stop-color:#9d6ce7"/></linearGradient><path d="M322.9 283.4s4.1 15.6 4.9 31.6c.9 19.5-1.7 40.8-1.7 40.8s2.8.4 5.2-1.8c21.9-17.3 21.1-63.9 12.3-90.2-.1 0-13 14-20.7 19.6" style="fill:url(#a)"/><linearGradient id="b" x1="251.857" x2="251.857" y1="861.113" y2="790.265" gradientTransform="translate(0 -578.724)" gradientUnits="userSpaceOnUse"><stop offset="0" style="stop-color:#4e4bfc"/><stop offset="1" style="stop-color:#9d6ce7"/></linearGradient><path d="M243.3 259.7c28.8-23.2 50.5-38.6 50.5-38.6l-4.8-9.5s-18.2 12.5-36.4 27.2c-18.2 14.5-42.8 35.7-42.8 35.7s3.1 2 4.6 3.7 2.9 4.2 2.9 4.2 13.5-12.6 26-22.7" style="fill:url(#b)"/><linearGradient id="c" x1="251.864" x2="251.864" y1="941.413" y2="699.311" gradientTransform="translate(0 -578.724)" gradientUnits="userSpaceOnUse"><stop offset="0" style="stop-color:#4e4bfc"/><stop offset="1" style="stop-color:#9d6ce7"/></linearGradient><path d="M348.1 253.1c30.5-34.5 35.5-56.4 27.5-66.1-4.4-5.5-19.7-7.6-33.1-3.5-13.1 4.1-26.7 12.3-26.7 12.3l4.4 8.8c64.5-36.2 56.2 2.6 19.8 35.7 0 0-111.7 109.7-157.7 82.1-45.9-27.8 1.8-126.8 23.2-158.4 50.7-71.5 107 96.1 107.5 94.6 0 0 19.7-17.8 20.2-18.2-9.5-18-57.5-145.1-119.4-115.3-20.4 9.9-39.7 44.1-39.7 44.1s-89.9 151.4-27.6 186.3c62.3 35.1 170.9-67.8 201.6-102.4" style="fill:url(#c)"/><linearGradient id="d" x1="201.518" x2="201.518" y1="885.414" y2="853.862" gradientTransform="translate(0 -578.724)" gradientUnits="userSpaceOnUse"><stop offset="0" style="stop-color:#4e4bfc"/><stop offset="1" style="stop-color:#9d6ce7"/></linearGradient><path d="M201.5 275.2c-20.9.7-20.9 30.9 0 31.6 8.8 0 15.8-7.2 15.8-15.8 0-8.7-7.2-15.8-15.8-15.8" style="fill:url(#d)"/></svg>