<svg xmlns="http://www.w3.org/2000/svg" width="256" height="256" fill="none" viewBox="0 0 256 256"><g clip-path="url(#a)"><rect width="256" height="256" fill="url(#b)" rx="128"/><path fill="#fff" d="M167.408 134.83c.386-2.216.592-4.494.592-6.824C168 105.947 150.044 88 127.993 88c-16.54 0-30.77 10.088-36.86 24.439h17.904c4.509-5.493 11.314-9.013 18.956-9.013 10.545 0 19.521 6.683 23.016 16.015H88.927a40 40 0 0 0-.927 8.553C88 150.051 105.956 168 128.018 168c15.953 0 29.758-9.397 36.18-22.929h-18.546c-4.469 4.622-10.71 7.503-17.634 7.503-11.185 0-20.625-7.515-23.592-17.757h63.021z"/><path fill="#fff" d="M121 182.177c-26.627-3.691-47.197-26.535-47.197-54.089 0-27.555 20.57-50.397 47.197-54.1V28c-51.924 3.88-93 47.235-93 100s41.076 96.12 93 100zM43.234 128c0-39.057 26.526-72.03 62.545-82.008v16.102c-27.426 9.461-47.185 35.455-47.185 65.994 0 30.541 19.759 56.533 47.185 65.996v15.95c-36.02-9.979-62.545-42.952-62.545-82.009zM135 28v45.987c26.627 3.692 47.197 26.535 47.197 54.101 0 27.567-20.57 50.398-47.197 54.089V228c51.938-3.88 93-47.234 93-100s-41.076-96.12-93-100m15.183 182.021v-15.937c27.45-9.45 47.235-35.455 47.235-66.008 0-30.554-19.785-56.558-47.235-66.008V45.98c36.044 9.966 62.583 42.95 62.583 82.021s-26.539 72.055-62.583 82.021"/></g><defs><linearGradient id="b" x1="0" x2="244.66" y1="-3.125" y2="262.293" gradientUnits="userSpaceOnUse"><stop offset=".106" stop-color="#00afff"/><stop offset=".244" stop-color="#006eff"/><stop offset=".877" stop-color="#e200ed"/></linearGradient><clipPath id="a"><rect width="256" height="256" fill="#fff" rx="128"/></clipPath></defs></svg>