<svg xmlns="http://www.w3.org/2000/svg" width="533.333" height="533.333" viewBox="0 0 400 400"><path d="M165.5 96.5c-15.3 5.4-26.3 16.9-31.4 32.7-1 2.9-2 3.9-4.9 4.9-11.6 3.7-20.3 10.2-26.8 20.1-7.4 11.1-8.4 16.5-8.4 45.3 0 13.3.4 26.5 1 29.4 2.9 15.3 16.4 30.5 32 36 6.1 2.1 6.3 2.4 7.8 7.7 1.3 4.7 8.2 15.7 12.1 19.5 3.6 3.4 11.3 8.6 14.8 10 8.6 3.4 13.1 3.9 38.3 3.9 27.9 0 31-.4 41.7-5.8 11-5.6 18.6-15.1 25.1-31.3.7-1.8 2-2.8 4.3-3.3 5.3-1 15.9-7.5 21-12.9 5.8-6.1 11.2-16.1 12.9-23.7.8-3.8 1.1-13.9.8-32-.4-30.1-.7-31.5-8.5-43.3-5.3-8-12.8-13.9-22.3-17.6-8.2-3.3-9-3.8-9-6 0-3.7-7.3-16.4-12.4-21.4-5.7-5.8-15.2-11.2-23-13.3-3.7-1-12.3-1.4-31.6-1.4-25.6 0-26.7.1-33.5 2.5m64.5 20.2c5 2.4 10.3 7.2 13.2 11.8 2.4 4.1 2.3 5.2-.9 6-4.7 1.1-12.4 5.4-17.5 9.6-3.5 3-7.7 8.8-15.4 21.2-5.9 9.5-11.2 17.8-12 18.6-1.1 1.2-4-.3-19.1-9.7-11.7-7.3-18.6-12.3-20-14.4-10.9-16.1-4-37.5 14-43.7 5.7-1.9 7.9-2.1 29.7-1.8 21.6.3 23.9.5 28 2.4m39.9 39.2c5.7 3 9.7 7.3 12.9 14 2.5 5.4 2.5 5.7 2.4 30.2 0 22.7-.2 25.1-2.1 29.4-1.1 2.6-3.2 6.1-4.7 7.8-2.5 3-9 7.7-10.7 7.7-.4 0-2.3-3.4-4.2-7.5-5-11-10.8-16.5-30.6-29.1-9.3-5.9-17.2-11.1-17.5-11.6-.8-1.2 18.9-32.8 22.9-36.6 7.6-7.3 21.9-9.3 31.6-4.3m-135.9.4c0 .7 1.5 4.4 3.4 8.3 4.9 10.4 11.4 16.2 30.4 27.7 8.9 5.5 16.5 10.3 16.8 10.8.8 1.3-18.8 32.8-22.8 36.5-5.8 5.6-9.4 6.9-18.8 6.9-7.5 0-9.1-.3-13.8-2.9-5.6-3.2-9.2-7.2-12.2-13.8-1.8-3.9-2-6.8-2-29.8 0-24.9.1-25.6 2.4-30.5 2.9-6 5.9-9.5 10.6-12.4 4-2.4 6-2.7 6-.8m72.4 59.5c.2.4 7.6 5.2 16.4 10.7 14 8.6 16.4 10.5 19.6 15.2 9.6 14.7 3.7 34-12.9 41.8-3.4 1.6-7.3 1.9-26.3 2.3-25.7.5-32-.5-39.4-6.3-3.7-2.9-8.8-9.7-8.8-11.7 0-.4 3.7-2.5 8.3-4.7 12.9-6.2 15.6-9.2 31.2-34.6 3.7-6.1 7.2-11.6 7.8-12.3 1.1-1.3 3.3-1.6 4.1-.4"/></svg>