<svg xmlns="http://www.w3.org/2000/svg" width="436" height="299"><path fill="#fa6105" d="M285.236-.537c4.042.785 6.204 3.283 8.99 6.122l1.847 1.82c2.044 2.023 4.07 4.062 6.096 6.102l4.382 4.35c3.97 3.943 7.924 7.901 11.874 11.864 3.296 3.303 6.6 6.598 9.903 9.893q11.683 11.656 23.337 23.344A9106 9106 0 0 0 375.79 87.05a9528 9528 0 0 1 20.69 20.663q6.174 6.186 12.37 12.35 5.822 5.792 11.607 11.624a813 813 0 0 0 4.278 4.265 688 688 0 0 1 5.8 5.828l1.744 1.701c1.547 1.592 1.547 1.592 3.721 4.519-.064 3.266-.488 4.435-2.672 6.844l-2.078 1.656-2.191 1.805L427 160a282 282 0 0 0-5 5l-2.687 2.625c-2.426 2.346-2.426 2.346-4.313 5.375h-2v2c-1.54 1.48-1.54 1.48-3.625 3.188-3.357 2.848-6.21 5.803-9.012 9.187-2.835 3.38-5.944 6.284-9.363 9.063-3.079 2.63-5.45 5.425-8 8.562-3.455 3.632-7.153 6.794-11 10-2.86 2.718-5.473 5.54-8 8.563-2.432 2.88-5.006 5.134-8 7.437-2.862 2.715-5.474 5.54-8 8.563-2.432 2.88-5.006 5.134-8 7.437-2.862 2.715-5.474 5.54-8 8.563-2.432 2.88-5.006 5.134-8 7.437-2.862 2.715-5.474 5.54-8 8.563-2.43 2.883-5.045 5.088-8 7.437l-2.5 3c-2.337 2.805-4.63 4.776-7.5 7-2.628 2.5-4.877 4.822-6.937 7.813C289 299 289 299 286.259 299.48c-4.4-.648-6.49-2.894-9.465-5.965l-1.804-1.787c-1.992-1.983-3.963-3.987-5.934-5.99a2917 2917 0 0 1-15.845-15.918c-4.028-4.066-8.073-8.114-12.116-12.165-7.658-7.676-15.3-15.368-22.938-23.066-8.683-8.75-17.382-17.482-26.083-26.213a36332 36332 0 0 1-49.92-50.194c-2.973-3-2.973-3-6.014-5.931C135 151 135 151 134.938 149.125c1.299-2.599 3.119-3.948 5.386-5.707 1.784-1.51 3.193-3.114 4.676-4.918 1.92-2.323 3.836-4.3 6.188-6.187 2.431-2 3.966-3.82 5.812-6.313h2l.7-1.727c1.63-2.848 3.62-4.518 6.113-6.648 3.821-3.35 7.033-6.66 10.187-10.625a283 283 0 0 1 5-5c.583-.605 1.165-1.21 1.766-1.832l1.859-1.918 1.727-1.797C188 95 188 95 191 94c2.959 1.975 5.424 4.554 8 7l1.89 1.629c4.056 3.629 4.056 3.629 4.298 6.934-1.55 3.181-3.508 5.15-6.188 7.437h-2l-.65 1.634c-1.835 3.217-4.336 5.637-6.944 8.225l-1.658 1.665a1163 1163 0 0 1-3.47 3.459 1135 1135 0 0 0-5.313 5.326l-3.371 3.363-1.607 1.619C170.23 146 170.23 146 168 146v2h-2c2.083 3.76 4.388 6.635 7.427 9.668l2.745 2.752 3.003 2.982 3.17 3.17q4.296 4.295 8.603 8.579 4.509 4.493 9.01 8.993 8.532 8.523 17.077 17.035c6.464 6.441 12.922 12.889 19.38 19.336a57475 57475 0 0 0 33.142 33.065l2.762 2.752 2.387 2.38q3.65 3.641 7.294 7.288l2 2c4.052-.21 6.131-2.747 8.892-5.49l1.447-1.428c1.6-1.58 3.19-3.173 4.78-4.765q1.716-1.703 3.435-3.404c3.11-3.084 6.21-6.177 9.308-9.274q3.878-3.872 7.763-7.738 9.156-9.121 18.292-18.262a6834 6834 0 0 1 18.913-18.836 6015 6015 0 0 0 16.219-16.165q4.836-4.84 9.696-9.657 4.568-4.527 9.099-9.091a497 497 0 0 1 3.353-3.332 407 407 0 0 0 4.546-4.56l2.58-2.574c1.985-2.321 1.985-2.321 1.443-5.236L403 146h-2c-1.332-1.39-1.332-1.39-2.812-3.25-2.482-3.018-5.125-5.318-8.188-7.75v-2l-1.687-.687c-2.972-1.687-4.958-3.843-7.313-6.313l-2.812-2.687C376 121 376 121 376 119h-2v-2l-1.687-.687c-2.972-1.687-4.958-3.843-7.313-6.313l-2.687-2.562C360 105 360 105 358.938 102.813c-1.236-2.388-2.542-2.65-4.938-3.813a141 141 0 0 1-5-5l-2.687-2.562C344 89 344 89 342.938 86.813c-1.236-2.388-2.542-2.65-4.938-3.813a141 141 0 0 1-5-5l-2.687-2.562C328 73 328 73 326.938 70.813c-1.236-2.388-2.542-2.65-4.938-3.813a141 141 0 0 1-5-5l-2.687-2.562C312 57 312 57 310.938 54.813c-1.236-2.388-2.542-2.65-4.938-3.813a141 141 0 0 1-5-5l-2.687-2.562C296 41 296 41 294.938 38.813 293.713 36.445 292.36 36.144 290 35c-1.75-2.125-1.75-2.125-3-4-5.696 2.656-10 6.717-14.035 11.488-4.361 5.031-8.95 9.825-13.618 14.57a350 350 0 0 0-2.955 3.057 384 384 0 0 1-4.337 4.451l-2.579 2.655C247 69 247 69 244.38 68.947c-2.425-.965-3.702-1.8-5.492-3.67l-1.592-1.63-1.607-1.71-1.667-1.72A539 539 0 0 1 230 56c1.249-3.666 2.41-5.72 5.438-8.125 5.54-4.61 10.505-9.75 15.562-14.875q4.654-4.661 9.327-9.301 3.313-3.294 6.621-6.593 1.746-1.737 3.495-3.473 2.537-2.52 5.069-5.047l1.578-1.563c7.376-7.375 7.376-7.375 8.146-7.56"/><path fill="#037afa" d="M150.5-.194c3.51 1.676 5.993 4.132 8.689 6.868l1.834 1.813c2.028 2.01 4.041 4.033 6.055 6.057q2.175 2.164 4.351 4.326c3.941 3.918 7.87 7.85 11.794 11.783q4.913 4.918 9.836 9.826a15023 15023 0 0 1 23.178 23.182c7.974 7.99 15.964 15.965 23.962 23.93q10.29 10.25 20.55 20.525 6.133 6.144 12.286 12.268 5.78 5.754 11.529 11.54a962 962 0 0 0 4.248 4.238 814 814 0 0 1 5.761 5.783l1.732 1.696c1.536 1.574 1.536 1.574 3.695 4.359-.052 4.195-3.137 6.54-5.979 9.32l-1.567 1.568a1154 1154 0 0 1-5.145 5.096l-3.56 3.548a3788 3788 0 0 1-9.386 9.311c-3.196 3.166-6.384 6.34-9.572 9.512Q255.407 195.69 246 205c-3.904-1.45-5.94-2.67-8.563-5.937-2.275-2.812-4.465-4.989-7.437-7.063 1.302-3.79 2.782-6.152 5.624-8.964l2.244-2.244 2.421-2.374 2.48-2.467c2.612-2.595 5.234-5.18 7.856-7.763l5.32-5.28Q262.461 156.444 269 150l-2.865-3.357-1.612-1.888c-3.687-4.248-7.649-8.292-12.086-11.755-2.939-2.412-5.221-5.172-7.683-8.059-1.855-2.145-1.855-2.145-4.754-4.441-2.338-1.949-4.037-3.632-5.96-5.926-4.933-5.703-10.315-10.956-15.665-16.261l-3.102-3.088q-2.85-2.839-5.705-5.673a740 740 0 0 1-5.222-5.243c-2.336-2.389-2.336-2.389-5.159-4.496L197 78v-2h-2c-2.125-1.875-2.125-1.875-4-4v-2h-2v-2l-1.777-.75c-2.55-1.434-3.934-2.997-5.786-5.25-2.11-2.558-3.637-4.133-6.437-6v-2l-1.875-.75c-2.476-1.456-3.076-2.628-4.125-5.25h-2v-2h-2v-2h-2c-1.55-1.574-1.55-1.574-3.313-3.687A131 131 0 0 0 151 31c-3.701 1.552-6.056 3.807-8.878 6.63l-1.444 1.437q-2.388 2.383-4.765 4.777l-3.425 3.42q-4.649 4.643-9.284 9.297c-3.234 3.243-6.474 6.48-9.712 9.718a19729 19729 0 0 0-16.3 16.323q-9.425 9.448-18.864 18.885a34819 34819 0 0 0-18.136 18.148q-3.861 3.867-7.726 7.732-4.545 4.547-9.083 9.1l-3.342 3.346a2517 2517 0 0 0-4.544 4.556l-2.574 2.579c-1.968 1.905-1.968 1.905-2.923 4.052h2a141 141 0 0 1 5 5l4.726 4.72 2.791 2.786 1.486 1.484q16.973 16.946 33.94 33.9 9.802 9.797 19.611 19.589 8.57 8.556 17.137 17.117 4.529 4.53 9.064 9.053 4.26 4.25 8.512 8.505 1.563 1.563 3.128 3.122 2.132 2.127 4.26 4.259l2.41 2.408C146 265 146 265 148 268c3.622-.576 5.257-1.905 7.787-4.51l2.205-2.245 2.352-2.436 4.965-5.05q3.905-3.998 7.8-8.006c2.508-2.573 5.027-5.134 7.547-7.694l2.352-2.443 2.205-2.235 1.928-1.983C189 230 189 230 193 230c1.746 1.574 1.746 1.574 3.437 3.688 2.066 2.523 4.085 4.873 6.5 7.062C205 243 205 243 205 247c-1.383 1.552-1.383 1.552-3.347 3.092-4.88 4.033-9.258 8.458-13.68 12.982-1.958 2.001-3.927 3.992-5.894 5.985a2832 2832 0 0 0-10.915 11.1q-3.81 3.897-7.653 7.765-1.453 1.471-2.893 2.956a442 442 0 0 1-4.046 4.1l-2.316 2.359c-2.684 1.976-3.995 2.153-7.256 1.661-1.844-1.61-1.844-1.61-3.5-3.75-2.611-3.223-5.228-5.685-8.5-8.25a348 348 0 0 1-4-5l-2-1v-2h-2v-2l-4-2v-2h-2v-2h-2v-2l-4-2v-2l-4-2v-2l-4-2v-2l-4-2v-2l-4-2v-2l-4-2v-2l-4-2v-2l-4-2v-2l-4-2v-2l-4-2v-2l-4-2v-2l-4-2v-2l-4-2v-2l-4-2v-2l-4-2v-2l-4-2v-2l-4-2v-2l-4-2v-2l-4-2v-2h-2v-2h-2a523 523 0 0 1-4-5l-2.25-1.687L31 183v-2l-4-2v-2l-4-2v-2l-4-2v-2l-4-2v-2l-4-2v-2l-4-2v-2l-3-1c-2.25-1.75-2.25-1.75-4-4 .082-5.097 3.25-7.818 6.667-11.189l1.811-1.834c2.007-2.028 4.029-4.041 6.05-6.055q2.162-2.175 4.321-4.351a3966 3966 0 0 1 11.771-11.794q4.914-4.914 9.819-9.836 11.57-11.602 23.167-23.178A9881 9881 0 0 0 87.513 59.8q10.239-10.29 20.51-20.55c4.091-4.089 8.179-8.182 12.255-12.286a2447 2447 0 0 1 11.534-11.529 800 800 0 0 0 4.231-4.248 679 679 0 0 1 5.782-5.761l1.687-1.732c2.276-2.213 3.754-3.638 6.987-3.889"/><path fill="#0379f8" d="M158 7c6.61 5.434 12.592 11.464 18.621 17.523l3.333 3.338a9788 9788 0 0 1 8.705 8.73q4.453 4.465 8.91 8.929Q206.288 54.255 215 63l-3 1-1.437-2.062c-2.897-3.32-6.056-5.654-9.637-8.192-2.116-1.918-2.566-2.96-2.926-5.746h-6l-.187-1.812c-.649-2.443-.649-2.443-3.313-3.688-2.5-1.5-2.5-1.5-3.312-3.687L185 37l-5-1v-2h-2l.563 1.5c.638 3.65-.014 6.84-.563 10.5h2c.544 3.058 1 5.888 1 9 1.744 4.915 5.819 7.213 10 10v3h2v2l3 1c1.64 1.523 1.64 1.523 3.25 3.375l1.64 1.836L202 78l-1 3c-2-1.375-2-1.375-4-3v-2h-2c-2.125-1.875-2.125-1.875-4-4v-2h-2v-2l-1.777-.75c-2.55-1.434-3.934-2.997-5.786-5.25-2.11-2.558-3.637-4.133-6.437-6v-2l-1.875-.75c-2.476-1.456-3.076-2.628-4.125-5.25h-2v-2h-2v-2h-2c-1.55-1.574-1.55-1.574-3.312-3.687A131 131 0 0 0 151 31c-4.325 1.659-7.094 4.871-10.25 8.125l-1.68 1.707A1078 1078 0 0 0 135 45l-1-3c3.872-5.58 3.872-5.58 7.688-7 2.668-.837 2.668-.837 3.625-4.125L146 28c5.274-.316 8.559.07 13 3 2.155 2.22 4.11 4.553 6 7l-2-4 2.313-1.25c2.624-1.709 3.99-3.16 5.687-5.75-1.098-2.993-1.677-3.846-4.625-5.25L164 21v-3l-3-1c-.95-2.285-.95-2.285-1.687-5.062l-.762-2.786z"/><path fill="#1a67c5" d="M8 140c0 4.39-2.128 5.77-5 9l1.5 1.875C6 153 6 153 6 155h2c2.618 2.41 4.895 4.864 7.063 7.688 1.706 2.377 1.706 2.377 3.874 3.187 3.297 1.798 5.211 4.907 7.063 8.125v2l1.813.25c2.81.963 3.466 2.384 5.187 4.75l1.875.938c2.99 1.495 4.899 3.595 7.125 6.062l1 3a210 210 0 0 0 5 4l1 2 2 .938C53 199 53 199 54 202l2 .938c2 1.062 2 1.062 2.75 3.187L59 208h2a207 207 0 0 1 4 5c3.257 3.545 3.257 3.545 7.25 6.125L74 220l1 3a523 523 0 0 0 5 4c4 4.54 4 4.54 4 7l2.938.813L90 236l1 3 2 1v2l3 1c1.587 1.69 2.974 3.484 4.402 5.309 1.52 1.808 1.52 1.808 3.727 2.726C106 252 106 252 107 255l2.188 1.75c2.347 1.878 3.94 3.515 5.812 5.813 2.392 2.906 4.749 4.524 8 6.437v3l1.688.75c4.87 2.633 8.255 6.16 11.624 10.5l2.114 2.703L140 288l-1 2-2.187-2.25c-2.72-2.763-2.72-2.763-5.625-4.937L129 281v-2h-2v-2l-4-2v-2h-2v-2h-2v-2l-4-2v-2l-4-2v-2l-4-2v-2l-4-2v-2l-4-2v-2l-4-2v-2l-4-2v-2l-4-2v-2l-4-2v-2l-4-2v-2l-4-2v-2l-4-2v-2l-4-2v-2l-4-2v-2l-4-2v-2l-4-2v-2l-4-2v-2l-4-2v-2l-4-2v-2h-2v-2h-2a523 523 0 0 1-4-5l-2.25-1.687L31 183v-2l-4-2v-2l-4-2v-2l-4-2v-2l-4-2v-2l-4-2v-2l-4-2v-2l-3-1c-2.25-1.75-2.25-1.75-4-4-.187-2.312-.187-2.312 1-5 2.187-2.5 4.54-4.77 7-7"/><path fill="#1f68b0" d="M193 230c1.746 1.574 1.746 1.574 3.438 3.688 2.065 2.523 4.084 4.873 6.5 7.062C205 243 205 243 205 247c-1.383 1.552-1.383 1.552-3.347 3.092-4.88 4.033-9.258 8.458-13.68 12.982-1.958 2.001-3.927 3.992-5.894 5.985a2832 2832 0 0 0-10.915 11.1q-3.81 3.897-7.653 7.765-1.453 1.471-2.893 2.956a442 442 0 0 1-4.046 4.1l-2.316 2.359C152 299 152 299 149.34 299.36c-3.226-.498-4.147-1.844-6.153-4.361l-1.832-2.25L140 291l3-1 1 2c1.768 2.173 1.768 2.173 3.98 2.266 2.009-.015 4.016-.135 6.02-.266v-2l3-1a499 499 0 0 0 3-4h2v-3c1.645-1.684 1.645-1.684 3.813-3.437 2.864-2.332 4.989-4.607 7.187-7.563l4-2 1-3 1.875-.875c2.826-1.496 3.554-3.376 5.125-6.125 2-2.312 2-2.312 4-4h3l.75-1.875c1.487-2.529 2.687-2.843 5.25-4.125 1.134-2.017 1.134-2.017 2-4l2-1c-.527-3.978-2.349-5.602-5.312-8.187l-2.364-2.106c-2.217-1.628-3.64-2.296-6.324-2.707v2c-1.32 1.262-1.32 1.262-3.125 2.688-2.542 2.098-4.726 4.198-6.812 6.75-2.765 3.355-5.874 6.061-9.18 8.87-2.618 2.352-4.678 4.95-6.883 7.692a283 283 0 0 1-5 5l-2.5 2.813c-2.5 2.187-2.5 2.187-5.312 2.5L147 271v-2c-2.332-1.206-4.496-2.165-7-3l-1.312-2.75c-1.548-2.98-2.307-3.97-4.813-5.937C131 255 131 255 130 252c-2.81-2.507-5.557-4.47-9-6v-2h-2l-1-6c5.785 4.777 11.099 9.945 16.39 15.26q2.152 2.157 4.311 4.304l2.756 2.76 2.5 2.503C146 265 146 265 148 268c3.622-.576 5.257-1.905 7.787-4.51l2.205-2.245 2.352-2.436 4.965-5.05a4984 4984 0 0 0 7.8-8.006c2.508-2.573 5.027-5.134 7.547-7.694l2.352-2.443 2.205-2.235 1.928-1.983C189 230 189 230 193 230"/><path fill="#1f69b7" d="M150.752.107C154.38 1.548 155.697 3.907 158 7l-1.813-.938c-3.421-1.661-4.68-2.208-8.437-1.125-4.123 1.856-6.516 4.922-9.27 8.418L137 15h-2l-.75 2.312c-1.371 2.949-2.485 4.046-5.25 5.688h-2l-1 3c-2.438 2.687-2.438 2.687-5 5h-2l-.75 1.75c-1.433 2.58-3.034 4.311-5.25 6.25h-2l-1 3c-2.511 2.726-5.123 5.1-8 7.437-3.079 2.63-5.45 5.426-8 8.563l-5 5a274 274 0 0 0-2.563 3.187C84.144 68.833 83.024 69.583 80 71c-3.826 3.516-7.128 7.442-10.45 11.426L68 84h-2l-.266 1.824c-.937 2.776-2.056 3.405-4.484 4.988-2.95 2.07-5.003 3.936-7 6.938C52 101 52 101 50.086 101.945c-2.59 1.31-3.886 2.938-5.711 5.18A71 71 0 0 1 41 111h-2l-.75 2.312c-1.371 2.949-2.485 4.046-5.25 5.688h-2l-1 3c-2.438 2.687-2.438 2.687-5 5h-2l-.75 2.312c-1.371 2.949-2.485 4.046-5.25 5.688h-2l-1 3c-2.563 1.187-2.563 1.187-5 2 5.818-7.106 12.339-13.517 18.81-20.02l3.91-3.938q6.387-6.432 12.784-12.855l2.2-2.21Q56.975 90.66 67.257 80.35 80.4 67.176 93.507 53.966a8116 8116 0 0 1 18.485-18.563q5.529-5.533 11.032-11.092 5.165-5.22 10.369-10.4 1.909-1.909 3.8-3.833a551 551 0 0 1 5.197-5.196l1.512-1.563c2.366-2.303 3.472-3.343 6.85-3.212"/><path fill="#1c6fc5" d="M290 139q1.659 1.404 3.313 2.813l1.863 1.582L297 145l1.793 1.45C300 148 300 148 299.887 149.763c-1.259 3.174-3.469 5.21-5.866 7.555l-1.567 1.569a1154 1154 0 0 1-5.145 5.096l-3.56 3.548q-4.686 4.664-9.386 9.311c-3.196 3.166-6.384 6.34-9.572 9.512Q255.408 195.69 246 205c-3.904-1.45-5.94-2.67-8.562-5.937-2.276-2.812-4.466-4.989-7.438-7.063 1.484-5.12 4.61-7.999 8.32-11.613l1.875-1.862c1.97-1.953 3.95-3.895 5.93-5.838l4.02-3.978Q255.06 163.843 260 159l1 2c-3.767 4.614-7.65 8.521-12.184 12.375-2.24 2.004-3.996 4.24-5.816 6.625l-5 5-1 2h-2c1.564 7.25 4.928 10.727 11 15v-2l2.375-.687c2.803-1.028 2.803-1.028 3.438-3.5 1.558-3.692 3.906-5.315 6.957-7.833 3.16-2.806 5.786-5.999 8.468-9.257C269 177 269 177 272 177v-2h2v-3c1.424-1.226 2.857-2.444 4.344-3.594 1.704-1.446 2.978-2.954 4.344-4.719L285 161h3l.688-1.687c1.993-3.513 4.673-6.494 8.312-8.313-.573-3.35-1.557-4.862-4.062-7.125-1.66-1.508-1.66-1.508-2.938-2.875z"/><path fill="#037afa" d="M178 34h2v2l2.313.188c3.568 1.078 3.88 2.649 5.687 5.812 2.566 1.808 2.566 1.808 5 3l-1 3 3-1 3 1c1.188 2.563 1.188 2.563 2 5l-4-1v-2h-2l.563 1.625c.551 2.995.043 5.412-.563 8.375l-2.437.375L189 61l-1 2-3-1v-2l-1.875-.562c-3.19-2.159-3.33-4.795-4.125-8.438 0-1.72.572-3.342 1-5h-2z"/><path fill="#0d70d5" d="M202 81c4.28.476 6.127 2.987 9 6 2.784 2.499 4.675 3.894 8.25 5.063L222 93l1 3h4l.191 1.758c1.058 6.749 3.44 9.296 8.809 13.242 1.723 1.54 1.723 1.54 3 3v2l2.938.75L245 118l.438 1.875c.337 2.225.337 2.225 2.128 3.168q1.902 1.002 3.84 1.93C253 126 253 126 254 129c2.001 2.365 2.968 2.99 6 4a388 388 0 0 1 2.05 5.156c1.625 3.154 4.133 4.732 6.95 6.844 1.938 1.563 1.938 1.563 3 3-.093 2.876-.937 3.93-2.875 6.063L267 156l-1.75 1.75L264 159l-3-1 8-8c-5.068-6.082-10.301-12.113-16.562-17-2.94-2.412-5.222-5.172-7.684-8.059-1.855-2.145-1.855-2.145-4.754-4.441-2.338-1.949-4.037-3.632-5.96-5.926-4.933-5.703-10.315-10.956-15.665-16.261l-3.102-3.088q-2.85-2.839-5.705-5.673L207 87l-2.83-2.765C202 82 202 82 202 81"/><path fill="#dd6722" d="M339 247v2c-1.574 1.55-1.574 1.55-3.687 3.313A135 135 0 0 0 326 261l-2.312 2.25c-2.323 2.377-4.505 4.81-6.688 7.313-2.807 3.191-5.653 5.813-9 8.437l-2.5 3c-2.337 2.805-4.63 4.776-7.5 7-2.628 2.5-4.877 4.822-6.937 7.813C289 299 289 299 286.208 299.438c-4.27-.583-5.633-2.172-8.606-5.25l-1.454-1.48a467 467 0 0 1-4.523-4.708 1670 1670 0 0 0-3.098-3.18A965 965 0 0 1 261 277l3-2 6 3c.625 2.563.625 2.563 1 5l4-1c1 2 1 2 .813 4.375-.048 2.737-.048 2.737 1.875 4.813 2.236 1.93 2.236 1.93 5 2.875L285 295l1 3h2l.875-1.875C290 294 290 294 292 292a89 89 0 0 0 2-4h2l.313-1.812c.81-2.582 1.568-3.523 3.687-5.188l2.375-.875c3.3-1.414 5.142-3.574 7.625-6.125h2l.313-2.812c.714-3.312 1.001-4.27 3.687-6.188l2.625-.937c2.566-.813 2.566-.813 3.188-3.188L322 259l1.75-.062c3.129-1.304 3.832-3.3 5.32-6.247 2.086-3.794 5.62-5.691 9.93-5.691m-63 35 2 1Z"/><path fill="#0e70de" d="M146 28c5.268-.316 8.599.003 13 3 2.783 3.129 5.206 6.4 7.07 10.156.851 1.941.851 1.941 2.555 3.407C170 46 170 46 170 49h2v2l2.375.25L177 52c.685 1.324 1.349 2.66 2 4a150 150 0 0 0 6 4 100 100 0 0 1 3 3l3 2v3h2v2l3 1c1.64 1.523 1.64 1.523 3.25 3.375l1.64 1.836L202 78l-1 3c-2-1.375-2-1.375-4-3v-2h-2c-2.125-1.875-2.125-1.875-4-4v-2h-2v-2l-1.777-.75c-2.55-1.434-3.934-2.997-5.786-5.25-2.11-2.558-3.637-4.133-6.437-6v-2l-1.875-.75c-2.476-1.456-3.076-2.628-4.125-5.25h-2v-2h-2v-2h-2c-1.55-1.574-1.55-1.574-3.312-3.687A131 131 0 0 0 151 31c-4.325 1.659-7.094 4.871-10.25 8.125l-1.68 1.707A1078 1078 0 0 0 135 45l-1-3c3.872-5.58 3.872-5.58 7.688-7 2.668-.837 2.668-.837 3.625-4.125z"/><path fill="#cf6728" d="M190 94c4.047 2.003 7.141 4.755 10.375 7.875l2.71 2.555C205 107 205 107 204.98 109.645c-1.531 3.679-3.816 4.999-6.98 7.355l1-4h2c-.991-5.507-2.633-8.471-7.047-11.977-3.15-1.65-5.652-.966-8.953-.023v3l-1.937.75c-2.25 1.066-2.25 1.066-2.813 3.375L180 110h-3l-.625 2.188c-1.85 3.784-3.977 5.335-7.375 7.812h-2v2l-2 2-1 3-2.062.75c-4.372 1.86-7.483 5.044-10.938 8.25 0-3.544.61-4.103 2.875-6.687l1.617-1.887C157 126 157 126 159 126l.7-1.727c1.63-2.848 3.62-4.518 6.113-6.648 3.821-3.35 7.033-6.66 10.187-10.625a283 283 0 0 1 5-5l1.8-1.832 1.887-1.918 1.762-1.797C188 95 188 95 190 94"/><path fill="#d8632e" d="M363 106c2.438.813 2.438.813 5 2l1 3q1.992.53 4 1c2.395 2.012 4.249 4.415 6 7v2h3c1.688 1.313 1.688 1.313 3 3v3l1.813.25c2.816.966 3.665 2.239 5.187 4.75v2h3l1 3c1.83 1.56 1.83 1.56 4 3 3.889 2.667 3.889 2.667 5 6h2c.293 2.188.293 2.188 0 5-2.012 2.5-2.012 2.5-4.687 5l-2.637 2.5L397 161q-2.505 2.495-5 5l-2.02 1.95-1.793 1.738-1.832 1.761c-1.574 1.459-1.574 1.459-1.355 3.551h-2l-.312 1.875C382 179 382 179 379 181c-2.187-.375-2.187-.375-4-1l2.678-2.583c3.27-3.162 6.522-6.344 9.767-9.532a759 759 0 0 1 4.24-4.118 736 736 0 0 0 6.069-5.935l1.938-1.844c1.608-1.607 3.057-3.09 4.308-4.988.069-2.854.069-2.854-1-5h-2c-1.332-1.39-1.332-1.39-2.812-3.25-2.482-3.018-5.125-5.318-8.188-7.75v-2l-1.687-.687c-2.972-1.687-4.958-3.843-7.313-6.313l-2.812-2.687C376 121 376 121 376 119h-2v-2l-1.687-.687c-4.276-2.427-7.452-5.746-9.313-10.313"/><path fill="#d65f2e" d="M288 31c2.313.188 2.313.188 5 1 1.625 2.438 1.625 2.438 3 5l3 2v2h2v2l3 1 1 2 3 1v3l1.844.285c2.664.883 3.206 1.797 4.656 4.153 1.859 2.808 3.195 4.46 6.5 5.562v3l1.813.188c3.053 1.134 3.547 3.057 5.187 5.812a788 788 0 0 0 5 3v3l2.813.188C339 76 339 76 340.875 78.438 342 81 342 81 342 83l3 1c1.026 1.65 2.023 3.32 3 5l2.188 2.188L352 93v2c-3.826-1.559-6.251-3.954-9-7l-1-3-1.75-.875c-3.038-1.519-4.912-3.673-7.25-6.125l-2.687-2.562C328 73 328 73 326.938 70.812c-1.236-2.387-2.542-2.648-4.938-3.812a141 141 0 0 1-5-5l-2.687-2.562C312 57 312 57 310.938 54.812c-1.236-2.387-2.542-2.648-4.938-3.812a141 141 0 0 1-5-5l-2.687-2.562C296 41 296 41 294.938 38.812c-.805-1.99-.805-1.99-2.938-2.812-2.49-1.245-2.987-2.467-4-5"/><path fill="#246ebb" d="M40 160c5.006 4.195 9.708 8.569 14.312 13.199l2.102 2.1q3.404 3.407 6.8 6.818l4.746 4.75q6.22 6.226 12.434 12.458 6.352 6.367 12.71 12.73A56398 56398 0 0 1 118 237l-3 1-1.32-1.61c-3.585-4.252-6.898-7.456-11.68-10.39-2.065-1.759-3.114-3.195-4.5-5.562-1.418-2.685-1.418-2.685-4.5-4.438v-2l-2.687-.5c-4.066-1.84-4.898-3.634-7.028-7.395-2.014-3.3-4.37-5.563-7.285-8.105l-2.117-.504L72 197a125 125 0 0 1-2-5l-3-1v-2l-3-1c-1.395-1.383-1.395-1.383-2.812-3.125l-1.575-1.89a533 533 0 0 1-3.195-3.97c-.51-.623-1.018-1.247-1.543-1.89l-1.383-1.742C51.72 173.74 50.356 173.394 48 173v-2h-2c-2.296-2.561-3-3.48-3-7l-3-1z"/><path fill="#1970cb" d="M203 245c0 4.186-1.684 5.076-4.602 8.022l-1.483 1.509a920 920 0 0 1-4.895 4.918l-3.395 3.418q-3.563 3.581-7.14 7.149c-3.056 3.05-6.093 6.118-9.126 9.19a1583 1583 0 0 1-7.023 7.05 669 669 0 0 0-3.362 3.39 529 529 0 0 1-4.725 4.72l-2.712 2.718C152 299 152 299 149.298 299.399c-3.175-.551-4.129-1.912-6.11-4.399l-1.833-2.25L140 291l3-1 1 2c1.768 2.173 1.768 2.173 3.98 2.266 2.009-.015 4.016-.135 6.02-.266v-2l3-1a499 499 0 0 0 3-4h2v-3c1.645-1.684 1.645-1.684 3.813-3.437 2.864-2.332 4.989-4.607 7.187-7.563l4-2 1-3 1.875-.875c2.826-1.496 3.554-3.376 5.125-6.125 2-2.312 2-2.312 4-4h3l.75-1.875c1.487-2.529 2.687-2.843 5.25-4.125a90 90 0 0 0 2-4z"/><path fill="#dd6b26" d="M322 233v3l-2 1.875-2 2.125.188 2.375C318 245 318 245 316.563 246.547a121 121 0 0 1-3.739 3.023c-1.854 1.378-1.854 1.378-3.355 3.067-2.213 2.054-4.546 2.038-7.469 2.363l1 3c-1.505 2.676-2.829 3.902-5.5 5.438-2.675 1.37-2.675 1.37-3.75 4.062-2.664 3.806-6.387 4.375-10.75 5.5l-2-7 3 2c3.482-.306 5.171-1.804 7.575-4.235l2.062-2.062 2.191-2.238 2.27-2.283c2.391-2.408 4.772-4.826 7.152-7.245l4.86-4.9Q316.065 239.03 322 233"/><path fill="#c36d3b" d="M148 136c0 3 0 3-1.715 4.719l-2.222 1.781c-3.352 2.64-3.352 2.64-5.063 6.5 2.014 5.368 5.397 8.809 9.4 12.74l1.951 1.953c2.12 2.117 4.25 4.224 6.38 6.33q2.214 2.206 4.426 4.414 5.814 5.793 11.644 11.57c3.967 3.936 7.925 7.881 11.885 11.825A16401 16401 0 0 0 208 221l-1 2-69-69-1.682-1.57C135 151 135 151 134.938 149.126c1.307-2.616 3.15-4.048 5.433-5.824 2.397-1.915 4.493-4.104 6.629-6.301z"/><path fill="#db6b2b" d="M283 0c2.438-.437 2.438-.437 5 0 1.813 2 1.813 2 3 4h-3.187c-3.787.58-3.787.58-5.25 2.848a79 79 0 0 0-2.325 4.437L279 13h-4v2l-1.937.875c-2.215.953-2.215.953-3.063 3.125l2 1-1.75.813c-4.55 2.4-6.676 4.74-9.25 9.187l-2 1-1-2-1.375 1.5C255 32 255 32 253 32l-1 4-3-1q4.808-4.812 9.632-9.606a8606 8606 0 0 0 7.171-7.142q1.891-1.883 3.785-3.765 2.746-2.728 5.486-5.464c.565-.559 1.13-1.118 1.711-1.695C279.135 4.978 281.15 2.776 283 0"/><path fill="#1562b6" d="m80 96 3 1-1.967 1.96q-9.165 9.135-18.321 18.276-4.708 4.701-9.42 9.396-4.545 4.53-9.084 9.065l-3.472 3.461A2877 2877 0 0 0 35.887 144l-2.793 2.785c-2.123 2.031-2.123 2.031-3.094 4.215h2l1 3-5-2c-.25-2.312-.25-2.312 0-5 2.044-1.976 3.118-3 6-3l2-4h2l.25-1.75c.976-2.928 2.385-4.302 4.75-6.25h3v-2h2l.75-1.875c1.487-2.529 2.687-2.843 5.25-4.125 1.108-1.883 1.108-1.883 2-4 1.438-2.25 1.438-2.25 3-4h3v-2h2l.75-1.875c1.487-2.529 2.687-2.843 5.25-4.125l1-2c1.245-2.49 2.467-2.987 5-4v-2h2v-2h2z"/><path fill="#246cbb" d="M235 84c6.447 5.31 12.3 11.171 18.184 17.086l3.198 3.203a9002 9002 0 0 1 8.35 8.374q4.271 4.286 8.547 8.567Q281.644 129.612 290 138c-2 1-2 1-6 1v-3l-3-1-2-2h-2c-1.625-1.187-1.625-1.187-3-3l.125-2.437L274 125c-2.44-2.201-2.44-2.201-5-4v-2l-3-1a210 210 0 0 1-3.55-4.328c-1.512-1.744-3.106-3.146-4.887-4.61-3.088-2.558-5.613-5.332-8.172-8.41-3.814-4.53-8.247-8.27-12.817-12.004C235 87 235 87 235 84"/><path fill="#0a73e9" d="M158 7c5.148 4.306 9.958 8.823 14.684 13.586l2.122 2.127q3.318 3.328 6.631 6.662l4.53 4.543Q191.487 39.455 197 45c-3.92 0-6.138-1.486-9-4a104 104 0 0 1-3.062-4.125c-2.354-3.333-3.95-4.69-7.938-5.875-1.5-1.312-1.5-1.312-3-3-3.153-3.402-5.54-5.598-10-7v-3l-3-1c-.95-2.285-.95-2.285-1.687-5.062l-.762-2.786z"/><path fill="#e0681e" d="M288 29c-1.276 2.553-2.47 2.774-5 4-4.589 3.358-8.294 7.382-11.957 11.7-4.124 4.644-8.617 8.946-13.043 13.3l-1-4 3-2 1.563-2.625L263 47h2v-3l6-4c1.699-2.498 1.699-2.498 3-5 1.563-1.812 1.563-1.812 3-3h2l1-3c3.287-.8 4.71-1.097 8 0"/><path fill="#d86f2f" d="M374 181c0 3 0 3-1.887 5.094A492 492 0 0 1 369 189c-3.288 3.15-6.55 6.324-9.812 9.5l-2.678 2.55-2.53 2.481-2.315 2.237c-1.995 2.675-1.847 3.983-1.665 7.232-1.906 1.555-1.906 1.555-4.5 2.875-8.022 4.424-14.15 10.597-20.5 17.125l-2-1z"/><path fill="#ea620f" d="M206 219h6l.875 2.25L214 224l.875 2.188c1.386 2.232 2.72 2.85 5.125 3.812v3l3.313.75c3.812 1.292 4.893 1.763 6.687 5.25.688 2.75.688 2.75 1 5h2l-1 4a2495 2495 0 0 1-10.144-9.98 1006 1006 0 0 0-3.451-3.389 981 981 0 0 1-4.96-4.893l-1.56-1.512c-2.873-2.873-4.684-5.328-5.885-9.226"/><path fill="#df631c" d="M420 133a268 268 0 0 1 12 10.563l2.375 2.19C436 148 436 148 435.985 150.56c-1.154 2.86-2.336 4.029-4.735 5.941-2.487 2.042-4.78 4.03-7.062 6.313C422 165 422 165 419 167c1.37-2.95 2.878-5.525 5-8h2v-2l2-1c.652-2.025.652-2.025 1-4l-3-1v-3h3l-2-2-.812-2.812c-1.388-3.724-3.336-5.486-6.188-8.188z"/><path fill="#dc6828" d="M339 247v2c-1.574 1.55-1.574 1.55-3.687 3.313A135 135 0 0 0 326 261l-2.312 2.25c-2.323 2.377-4.505 4.81-6.688 7.313-2.803 3.182-5.598 5.886-9 8.437a178 178 0 0 0-4 4c0-3 0-3 1.242-4.605l1.633-1.582 1.617-1.606C310 274 310 274 312 274l.313-2.812c.714-3.312 1.001-4.27 3.687-6.188l2.625-.937c2.566-.813 2.566-.813 3.188-3.188L322 259l1.75-.062c3.129-1.304 3.832-3.3 5.32-6.247 2.086-3.794 5.62-5.691 9.93-5.691"/><path fill="#c86937" d="M326 39c5.31 4.434 10.248 9.115 15.121 14.023l2.257 2.262q3.533 3.541 7.06 7.09l4.818 4.832Q361.132 73.1 367 79c-2.698 1.349-4.152.803-7 0l-1-2-3-2a93 93 0 0 1-1-4l-2-1-1.279-2.208c-2.023-3.282-4.514-5.8-7.264-8.46l-1.601-1.578a1454 1454 0 0 0-5.043-4.941 1952 1952 0 0 1-6.668-6.543l-1.563-1.512C328.35 43.543 327.17 42.275 326 41z"/><path fill="#226ab9" d="M118 238c6.246 5.176 12 10.782 17.75 16.5l2.863 2.8 2.746 2.731 2.484 2.455c2.298 2.679 3.714 5.306 5.157 8.514h-2v-2c-2.332-1.206-4.496-2.165-7-3l-1.312-2.75c-1.548-2.98-2.307-3.97-4.813-5.937C131 255 131 255 130 252c-2.81-2.507-5.557-4.47-9-6v-2h-2z"/><path fill="#0877ed" d="M202 81c4.28.476 6.127 2.987 9 6 2.784 2.499 4.675 3.894 8.25 5.063L222 93l1 3h4l2 7h-3l-5-5-2.812-1.312C213.62 94.27 210.53 90.718 207 87a593 593 0 0 0-3-2.937C202 82 202 82 202 81"/><path fill="#e8631b" d="M328 72c5.037 1.007 9.77 2.374 12.938 6.563C342 81 342 81 342 83l3 1c1.026 1.65 2.023 3.32 3 5l2.188 2.188L352 93v2c-3.826-1.559-6.251-3.954-9-7l-1-3-1.75-.875c-5.147-2.574-8.672-7.73-12.25-12.125"/><path fill="#d3743c" d="m404 147 3 1c-.54 3.97-2.407 5.722-5.25 8.438l-2.477 2.394L397 161l-2.625 2.625a307 307 0 0 1-4.23 4.16l-1.957 1.903-1.833 1.761c-1.574 1.459-1.574 1.459-1.355 3.551h-2l-.312 1.875C382 179 382 179 379 181c-2.187-.375-2.187-.375-4-1l2.662-2.599a2582 2582 0 0 0 9.728-9.571q2.105-2.075 4.22-4.138c2.025-1.977 4.037-3.966 6.046-5.958.635-.613 1.269-1.227 1.922-1.86l1.76-1.758 1.561-1.534c1.482-1.808 1.482-1.808 1.101-5.582"/><path fill="#eb5a0f" d="m175 111 2 1a244 244 0 0 1-2.75 3.438l-1.547 1.933c-1.9 1.817-3.139 2.233-5.703 2.629v2l-2 2-1 3-2.062.75c-4.372 1.86-7.483 5.044-10.938 8.25 0-3.544.61-4.103 2.875-6.687l1.617-1.887C157 126 157 126 159 126l.625-1.687c1.952-3.283 4.317-5.02 7.375-7.313h2c1.571-1.328 1.571-1.328 3.125-3l1.633-1.687z"/><path fill="#d06725" d="M244 40v3l-1.875 1.813c-2.354 2.106-2.354 2.106-3.187 5.374L238 53l-3 1c1.208 4.43 2.517 6.981 6 10l-1 2-10-10c1.846-4.615 2.33-5.68 5.875-8.562 2.848-2.372 5.555-4.76 8.125-7.438"/><path fill="#2469b0" d="m260 159 1 2c-3.767 4.614-7.65 8.521-12.184 12.375-2.24 2.004-3.996 4.24-5.816 6.625a283 283 0 0 1-5 5l-2.187 2.313C234 189 234 189 232 189l1 5-3-2c1.484-5.12 4.61-7.999 8.32-11.613l1.875-1.862c1.97-1.953 3.95-3.895 5.93-5.838l4.02-3.978Q255.06 163.843 260 159"/><path fill="#c66a36" d="m233 248 1.625.875c2.395 1.256 2.395 1.256 5.313 1.688 3.422 1.606 3.583 2.025 5.125 5.25 3.605 7.354 10.07 12.629 15.937 18.187l-1 2a9958 9958 0 0 1-11.536-11.48l-3.928-3.909a3893 3893 0 0 1-5.63-5.607c-.59-.586-1.18-1.171-1.79-1.774A263 263 0 0 1 233 249z"/><path fill="#1462b4" d="m106 70 3 1-25 25-1-3 3-1 .938-1.937C88.234 87.545 89.422 87.03 92 86v-2h2l.68-1.672c1.724-3.04 3.945-5.142 6.445-7.578l2.758-2.703z"/><path fill="#ef600e" d="M285.57-.379C288 0 288 0 289.813 2L291 4h-3.187c-3.787.58-3.787.58-5.25 2.848a79 79 0 0 0-2.325 4.437L279 13h-4v2l-4 1 2.625-2.937c3.073-3.53 5.453-7.291 7.785-11.34C283 0 283 0 285.57-.38"/><path fill="#246db9" d="M255 134c3.402.252 4.14 1.16 6.438 3.813l1.269 1.632c1.831 2.202 4.024 3.823 6.293 5.555 1.875 1.5 1.875 1.5 3 3-.093 2.876-.937 3.93-2.875 6.063L267 156l-1.75 1.75L264 159l-3-1 8-8c-3.938-4.726-8.045-9.115-12.46-13.398C255 135 255 135 255 134"/><path fill="#1265d1" d="m186 63 5 1v4h2v2l3 1c1.64 1.523 1.64 1.523 3.25 3.375l1.64 1.836L202 78l-1 3c-2-1.375-2-1.375-4-3v-2h-2c-2.125-1.875-2.125-1.875-4-4v-2h-2v-2l-4-2z"/><path fill="#ea630e" d="m301 256 2 2c-1.647 2.514-2.866 3.923-5.5 5.438-2.675 1.37-2.675 1.37-3.75 4.062-2.664 3.806-6.387 4.375-10.75 5.5l-2-7 3 2c2.772.165 5.343-.195 8-1 1.35-1.783 1.35-1.783 2-4 2-2.25 2-2.25 4-4h2z"/><path fill="#df6119" d="M207 192c5.644 4.684 11.006 9.62 16 15v1c-3.779.556-4.964.025-8.187-2.187-2.713-2.713-3.579-4.3-4.813-7.813l-3-2z"/><path fill="#0b73e5" d="M275 126c4.45.413 6.841 3.505 9.75 6.563l1.535 1.576c1.245 1.28 2.481 2.57 3.715 3.861-2 1-2 1-6 1v-3l-3-1-2-2h-2c-1.687-1.25-1.687-1.25-3-3 .313-2.187.313-2.187 1-4"/><path fill="#f1600d" d="M404 117c5.661 4.698 10.852 9.747 16 15l-4 3c-4.923-4.308-4.923-4.308-5.312-7.812L411 125l-1.812-.187c-3.091-1.149-3.776-2.918-5.188-5.813z"/><path fill="#dc6625" d="M402 179h5c-2.74 4.682-5.883 7.835-10.027 11.32-2.47 2.103-4.716 4.353-6.973 6.68 0-3.117.347-3.98 1.875-6.562l1.055-1.817c1.642-2.487 2.79-3.525 5.632-4.496 2.622-.866 2.622-.866 3.25-3.25z"/><path fill="#e76315" d="m258 28 1 4c-6.261 5.576-6.261 5.576-9.937 7.688L247 41v3l-3 1c-1.667 1.5-1.667 1.5-3 3l-2-1 2.313-2.187c2.737-2.621 2.737-2.621 4.187-5.563C247 37 247 37 249.688 36.188L252 36l.188-1.75c1.132-3.137 3.154-4.342 5.812-6.25"/><path fill="#d8611f" d="M223 208c5.661 4.698 10.852 9.747 16 15-2.84 0-5.237-.403-8-1v-5l-2.312.25c-2.688-.25-2.688-.25-4.5-1.937-1.364-2.655-1.433-4.369-1.188-7.313"/><path fill="#dc622a" d="m189 99-4 1v4l-1.937.75L181 106l-.375 1.938L180 110a199 199 0 0 1-6 3c-2.433 1.893-4.726 3.92-7 6 3.035-6.713 8.782-11.927 14-17l1.5-1.812c2.145-1.698 3.85-1.403 6.5-1.188"/><path fill="#ec610c" d="M366 191c1 3 1 3 1 6l-2.375.75c-2.948 1.404-3.527 2.257-4.625 5.25h-2v2l-7 2c4.698-5.661 9.747-10.852 15-16"/><path fill="#e1671d" d="M193 119h2c-1.587 3.903-4.134 6.335-7.125 9.25l-2.758 2.703L183 133l-2-4 1.875-.75c2.514-1.479 2.978-2.63 4.125-5.25l2-2h4z"/><path fill="#d86524" d="M175 160c5.661 4.698 10.852 9.747 16 15-2.84 0-5.237-.403-8-1v-5l-2.875-.812C177 167 177 167 175 164z"/><path fill="#256ebc" d="M158 7c5.437 4.53 10.465 9.343 15.438 14.375l2.216 2.23Q178.331 26.3 181 29c-3 0-3 0-5.312-2.25L173 24l-3.062-1.937c-3.327-2.336-4.78-4.65-6.938-8.063l-2.75-2.75L158 9z"/><path fill="#1c6bbf" d="M217 96c4.294.477 6.109 2.974 9 6q1.806 1.447 3.625 2.875c3.568 2.985 4.889 5.754 6.375 10.125h-2c-1.375-1.398-1.375-1.398-3-3.375-3.779-4.466-7.875-8.537-12.059-12.621C217 97 217 97 217 96"/><path fill="#126dc8" d="M134 256c5.453.842 8.554 4.983 12 9 1.265 1.991 2.12 3.802 3 6h-2v-2c-2.332-1.206-4.496-2.165-7-3a402 402 0 0 1-3-6l-3-2z"/><path fill="#0877ec" d="M188 233c5.04.445 7.376 2.713 11 6-3.106 1.553-5.663.167-8.906-.723L188 238l-2 2c-2.125-.375-2.125-.375-4-1h2l2-4h2z"/><path fill="#1e68b8" d="M215 64c7.158 5.826 13.526 12.438 20 19-3.484 0-3.884-.45-6.375-2.687l-1.855-1.665C222.834 74.982 219.318 71.234 216 67l-2-2z"/><path fill="#d96322" d="M248 233c6.033 4.984 11.518 10.42 17 16l-2 1c-3-1-3-1-4.375-3.437-1.966-3.1-3.292-3.262-6.625-4.563-3.227-3.314-4-4.261-4-9"/><path fill="#de6322" d="m386 198 2 1c-4.471 5.493-8.678 10.568-15 14l2-4 1.5-3.125c2.212-4.24 4.169-5.21 8.5-6.875z"/><path fill="#0a74e7" d="M255 106q1.758 1.428 3.5 2.875l1.969 1.617L262 112v2l1.75.688c2.846 1.66 4.248 3.704 6.25 6.312a279 279 0 0 0 5 5l-7-1v-5l-3-1c-1.243-1.439-2.48-2.884-3.66-4.375-1.506-1.885-1.506-1.885-4.152-4.375C255 108 255 108 255 106"/><path fill="#da621c" d="M353 68c4.297 1.39 6.707 3.38 9.813 6.625l2.394 2.477L367 79c-2.698 1.349-4.152.803-7 0l-1-2-3-2a93 93 0 0 1-1-4l-2-1z"/><path fill="#da6829" d="M319 265c-.611 5.297-4.663 8.89-8.562 12.125L308 279a178 178 0 0 0-4 4c0-3 0-3 1.242-4.605l1.633-1.582 1.617-1.606C310 274 310 274 312 274l.313-2.812C313.28 266.7 314.299 265 319 265"/><path fill="#1f6abc" d="M197 46c6.41 5.271 12.186 11.091 18 17l-3 1-1.437-2.062c-2.305-2.642-4.377-4.338-7.188-6.376C199.631 52.76 197.816 50.78 197 46"/><path fill="#1566b7" d="m131 45 3 1-14 14-2-2 3.809-4.492c1.279-1.514 1.279-1.514 2.191-3.508a264 264 0 0 1 5-3z"/><path fill="#176ac2" d="M124 272c6.905 3.348 11.377 10.082 16 16l-1 2-2.187-2.25c-2.72-2.763-2.72-2.763-5.625-4.937L129 281v-2l-2-1 1-2-4-2z"/><path fill="#087bf6" d="M253 128c3 0 3 0 4.5 1.375L259 131l3 2 .438 1.875c.758 2.864 2.467 4.097 4.562 6.125v2h4v3l-5-2v-2l-1.875-.812C262 140 262 140 260 137v-4l-1.812-.375C256 132 256 132 253 130z"/><path fill="#145ec9" d="M19 169c2.798.386 3.82.801 5.75 2.938C26 174 26 174 26 176l1.75.125c3.383 1.316 4.442 3.84 6.25 6.875h-3v-2l-4-2v-2l-4-2v-2l-4-2z"/><path fill="#1868b5" d="M147 29c2.11.418 2.11.418 4 1l-1.469 1.25C144.457 35.621 139.678 40.21 135 45l-1-3c2.894-4.17 4.99-6.569 10-8v-2c1.25-1.687 1.25-1.687 3-3"/><path fill="#0d6fda" d="M246 123c5.683 1.482 5.683 1.482 7.188 3.938L254 129c2.032 2.385 2.93 2.977 6 4l-1 3c-7.018-2.028-7.018-2.028-9-5-.187-2.687-.187-2.687 0-5l-4-2z"/><path fill="#0976ef" d="M235 87q1.909 1.402 3.813 2.813l2.144 1.582A46.6 46.6 0 0 1 246 96l-1 2-3-2-2.5-.937c-2.533-1.077-3.935-1.803-5.5-4.063.43-2.102.43-2.102 1-4"/><path fill="#d17136" d="M368 213h5c-1.41 3.307-3.055 5.155-5.812 7.438-2.453 2.07-4.827 4.134-7.063 6.437C358 229 358 229 356 230c2.137-4.809 5.135-8.393 9.25-11.625L368 216z"/><path fill="#186abe" d="M202 81c6.365.707 10.203 7.382 14 12l2 2c-3 0-3 0-4.867-1.574l-2.008-2.114-2.117-2.203L207 87a578 578 0 0 0-3-2.937C202 82 202 82 202 81"/><path fill="#c36c37" d="M252 58h5a468 468 0 0 1-4.418 5.172 240 240 0 0 0-3.644 4.328C247 69 247 69 244.313 68.875 242 68 242 68 241 66l6 1v-3h2v-2q1.47-1.53 3-3z"/><path fill="#d0723a" d="m354 230 2 1-2.125 2.063c-2.104 2.086-3.998 4.271-5.875 6.562-2.378 2.827-4.658 4.704-8 6.375l2-4 .813-2.062c1.592-2.599 3.565-3.414 6.187-4.938a140 140 0 0 0 5-5"/><path fill="#ee620f" d="m148 138 1 2c-1.472 3.736-1.472 3.736-4 5-1.134 2.017-1.134 2.017-2 4h-5c2.413-4.827 5.86-7.7 10-11"/><path fill="#ec5f0e" d="M195 208c1.938.375 1.938.375 4 1l1 2c2.527.656 2.527.656 5 1l.375 2.938L206 218l2 1c-4.08-.524-5.953-2.611-8.75-5.5l-2.422-2.469C195 209 195 209 195 208"/><path fill="#d16837" d="M328 72c3.17.705 6.118 1.483 9 3 1.125 2.313 1.125 2.313 2 5a157 157 0 0 0 3 5c-6.094-2.483-9.958-8.034-14-13"/><path fill="#e16118" d="M226 235c3.254 2.834 4.52 4.686 5 9h2l-1 4c-3.329-2.984-5.32-5.846-7-10z"/><path fill="#eb5e0f" d="m200 110 1 3h-2l-.875 2.938C197 119 197 119 195 120l-2-1v2h-2l1-5h4v-4z"/><path fill="#0874ea" d="m60 90 1 3-3 1-.875 1.75C54.724 100.553 50.181 103.775 46 107c.75-2.375.75-2.375 2-5l1.883-.914c2.561-1.314 3.597-2.744 5.242-5.086 1.555-2.191 2.97-4.096 4.875-6"/><path fill="#db5f2b" d="m352 95 5 1v3h2c2.125 1.813 2.125 1.813 4 4v3c-1.937-.812-1.937-.812-4-2l-1-3-1.937-.937C353.545 98.766 353.03 97.578 352 95"/><path fill="#246cba" d="M181 30c5.661 4.698 10.852 9.747 16 15-3.933 0-6.119-1.5-9-4-2.985-3.434-5.554-6.662-7-11"/><path fill="#ca6228" d="M216 231c3.256.594 6.118 1.344 9 3 1.656 2.882 2.406 5.744 3 9-4.526-3.678-8.394-7.41-12-12"/><path fill="#ec5e0b" d="m181 194 8 1 .438 2.25c.464 2.27.991 4.505 1.562 6.75-7.483-6.15-7.483-6.15-10-10"/><path fill="#c56a31" d="M270 43c0 3 0 3-2.625 5.918a350 350 0 0 1-3.375 3.27l-1.734 1.693c-1.416 1.38-2.84 2.75-4.266 4.119l-1-4 1.574-1.137c4.149-3.044 7.9-6.116 11.426-9.863"/><path fill="#0a72e5" d="M183 34a141 141 0 0 1 5 5v2l2.25.813c2.64 1.14 4.606 2.28 6.75 4.187v2h-5l-.187-1.812C190.678 43.134 188.755 42.64 186 41c-3-4.241-3-4.241-3-7"/><path fill="#1871bc" d="M10 160c2.766.381 3.755.683 5.5 2.938L17 165c2.083 1.252 2.083 1.252 4 2v2l-5-1-1-3-2-1c-2-1-2-1-3-4"/><path fill="#0875e9" d="M182 240c.313 2.313.313 2.313 0 5-2.437 1.688-2.437 1.688-5 3l-1 2c-2.562.625-2.562.625-5 1 9.27-11 9.27-11 11-11"/><path fill="#cc6c36" d="m175 135 4 2-9 9-2-1c2.462-4.8 2.462-4.8 5.188-5.812L175 139z"/><path fill="#dc6230" d="M160 123h2c-1.366 4.285-3.207 6.431-6.625 9.313l-2.477 2.113L151 136c0-3.544.61-4.103 2.875-6.687l1.617-1.887C157 126 157 126 159 126z"/><path fill="#e55f10" d="m314 29 1.355 1.207C318.748 33.18 322.018 35.828 326 38c-3 1-3 1-6-.125-3.222-2.014-4.425-3.463-6-6.875z"/><path fill="#da6d2b" d="M285.5-.562C288 0 288 0 291 4l-11 1c2.3-4.843 2.3-4.843 5.5-5.562"/><path fill="#156fd2" d="M64 186c5.98 2.225 8.109 5.614 11 11h-3l-.812-2.437L70 192l-3-1v-2l-3-1z"/><path fill="#1467c4" d="M269 146h2c1 3 1 3 0 6a91 91 0 0 1-4 4l-1.75 1.75L264 159l-3-1 1.75-1.61 2.25-2.14 2.25-2.11c2.172-2.195 2.172-2.195 1.75-6.14"/><path fill="#ed5f0e" d="M248 258c2.625.375 2.625.375 5 1v7l-7-6z"/><path fill="#d16526" d="m233 248 1.625.875c2.442 1.238 2.442 1.238 5.5 2C243 252 243 252 244.375 254.125L245 256c-2.062.438-2.062.438-5 0-2.6-2.095-4.865-4.435-7-7z"/><path fill="#e3631e" d="M397 138c6.571 4 6.571 4 8 8h2l-1 2h-3v-2h-2c-4-5.412-4-5.412-4-8"/><path fill="#b76637" d="M190 94c4.509 2.319 6.94 5.065 10 9a56.5 56.5 0 0 1-7-4v-2l-8 2z"/><path fill="#e8620e" d="m394 163 2 1-2.312 2.188c-2.4 2.51-4.042 4.78-5.688 7.812l-4-1z"/><path fill="#256dbb" d="M277 126a85 85 0 0 1 13 13c-3.504-.56-4.88-1.616-7.062-4.375-1.485-1.851-2.9-3.59-4.622-5.227C277 128 277 128 277 126"/><path fill="#e26022" d="M322 63c3.76 1.504 3.76 1.504 4.938 3.938 1.433 2.781 3.344 3.631 6.062 5.062l-1 2-6-3v-2l-3-1z"/><path fill="#e86310" d="M236 57c2.918 1.107 3.89 1.81 5.5 4.563 1.257 2.602 1.257 2.602 3.688 3.25L247 65v2c-2.875-.187-2.875-.187-6-1-1.187-2.5-1.187-2.5-2-5l-3-1z"/><path fill="#f0600c" d="m234 241 3 1c.625 2.313.625 2.313 1 5l-2 3-3-2z"/><path fill="#0f73e0" d="M107 229a367 367 0 0 1 3.438 2.813l1.933 1.582C114 235 114 235 115 238h3l1 4c-4.907-2.92-8.72-6.279-12-11z"/><path fill="#d86c2f" d="m394 187 4 2c-5.143 6.571-5.143 6.571-9 8 1.156-3.912 2.355-6.875 5-10"/><path fill="#db6923" d="M383.203 174.316 385 175h-2l-.312 1.875C382 179 382 179 379 181c-2.187-.375-2.187-.375-4-1 .9-1.035 1.82-2.053 2.75-3.062l1.547-1.723C381 174 381 174 383.203 174.316"/><path fill="#d46635" d="m418 167 1 2a91 91 0 0 1-4 4h-2v2c-1.875 2.125-1.875 2.125-4 4h-2c2.455-5.523 5.642-9.172 11-12"/><path fill="#d16f34" d="m429 155 2 1c-3.613 4.56-6.988 8.017-12 11 1.37-2.95 2.878-5.525 5-8h2v-2z"/><path fill="#dc6418" d="m431 148 5 2c-1.25 2.5-1.25 2.5-3 5h-4l1-4h2z"/><path fill="#0776e9" d="M8 142c.688 1.75.688 1.75 1 4-1.437 2.25-1.437 2.25-3 4l1 2-4-1c0-4.39 2.128-5.77 5-9"/><path fill="#0774ed" d="m28 122 1 3-2.25 2.188c-2.763 2.72-2.763 2.72-4.937 5.624L20 135h-2c0-2 0-2 1.938-4L22 129l1-2h2l.938-1.937C27 123 27 123 28 122"/><path fill="#0a73e5" d="m101 49 1 4-9 7-2-1a141 141 0 0 1 5-5h2l.938-1.937C100 50 100 50 101 49"/><path fill="#d26020" d="M207 192q1.693 1.4 3.375 2.813l1.898 1.582C214 198 214 198 216 201c-3.143-.35-4.795-.84-7.312-2.812C207 196 207 196 207 192"/><path fill="#d4672b" d="M288 31c2.313.188 2.313.188 5 1 3 4.034 3 4.034 3 7h-2v-2l-1.875-.75c-2.476-1.456-3.076-2.628-4.125-5.25"/><path fill="#0f73e3" d="M75 197q1.659 1.404 3.313 2.813l1.863 1.582C83.52 204.337 83.52 204.337 85 206v2h-3v-2h-2c-1.922-2.882-3.464-5.901-5-9"/><path fill="#e8620d" d="m375 181 2 1-1 3h-2l-.687 2.438L372 190c-2.625.813-2.625.813-5 1 1.375-2 1.375-2 3-4h2l.938-1.875z"/><path fill="#e06114" d="M140 153c3.313.625 3.313.625 7 2 2 3 2 3 3 6l-1 2a1766 1766 0 0 1-4.5-4.437l-2.531-2.497C140 154 140 154 140 153"/><path fill="#0a71e7" d="M287 138c3.35 1.117 3.793 1.747 5.688 4.563l1.324 1.94L295 146l-5 1-1-7h-2z"/><path fill="#1763b0" d="m116 60 3 1-9 9-1-3 3-1c1.092-1.933 1.092-1.933 2-4z"/><path fill="#0774e7" d="M151 3c3.366 1.443 5.51 3.333 8 6l-2 1V8h-3v2h-4V8l2-1z"/><path fill="#d56524" d="M191 176q1.724 1.432 3.438 2.875l1.933 1.617C198 182 198 182 199 184l-7-2z"/><path fill="#ed5d1f" d="m166 119 1 3-2 2-1 3h-3c-.366-4.517-.366-4.517 1.375-6.812C164 119 164 119 166 119"/><path fill="#206bbc" d="M151 30c3 0 3 0 4.535 1.496l1.528 1.942c2.104 2.72 2.104 2.72 4.937 4.562l-1 3q-2.505-2.466-5-4.937l-2.812-2.778C151 31 151 31 151 30"/><path fill="#e85e0c" d="M298 13q1.723 1.432 3.438 2.875l1.933 1.617C305 19 305 19 306 21l-3 1c-3.254-2.834-4.52-4.686-5-9"/><path fill="#df6b28" d="m281 266 3 2h4l-1 4-4 1z"/><path fill="#ec5e0c" d="M394 109q1.723 1.432 3.438 2.875l1.933 1.617C401 115 401 115 402 117c-3.107-.336-4.604-.59-6.812-2.875C394 112 394 112 394 109"/><path fill="#ed5e0c" d="m380 95 7 6-4 2c-2.624-3.061-3-3.732-3-8"/><path fill="#e86010" d="M253 266c2.875.25 2.875.25 6 1 1.438 1.875 1.438 1.875 2 4l-1 3q-1.755-1.716-3.5-3.437l-1.969-1.934C253 267 253 267 253 266"/><path fill="#ed5f0f" d="M172 179v2h2l-1 5-6-5c3-2 3-2 5-2"/><path fill="#1e6fcb" d="M40 160c3.62 2.641 5.987 4.974 8 9v2h-2c-2.296-2.561-3-3.48-3-7l-3-1z"/><path fill="#e45d17" d="M180 129h2c.125 2.375.125 2.375 0 5l-2 2h-3v-4h3z"/><path fill="#ce6836" d="M379 122h2v2h4c3 4.071 3 4.071 3 7-2 0-2 0-4.5-2.25-2.07-2.276-3.357-3.946-4.5-6.75"/><path fill="#0773e8" d="M147 5c-.187 1.813-.187 1.813-1 4-2.437 1.813-2.437 1.813-5 3l-2-1a376 376 0 0 1 2.875-3l1.617-1.687C145 5 145 5 147 5"/><path fill="#cd662b" d="M255 240c7.483 6.15 7.483 6.15 10 10-2.312-.187-2.312-.187-5-1-1.687-2.312-1.687-2.312-3-5z"/><path fill="#1a70b8" d="M42 192c2.763.381 3.841.836 5.813 2.875L49 197l-1 3-1-3-2-1c-2-1-2-1-3-4"/><path fill="#e86111" d="M158 171h6l1 7a858 858 0 0 1-3.5-2.937l-1.969-1.653L158 172z"/><path fill="#eb5e0f" d="m150 163 4 1v2l4-1v6a707 707 0 0 1-3.437-2.875l-1.934-1.617C151 165 151 165 150 163"/><path fill="#c5692f" d="m136 147 3 1 1 5h-4a88 88 0 0 1-1-5z"/><path fill="#0874e5" d="M261 138c2.438.813 2.438.813 5 2l1 3h4v3l-5-2v-2l-1.937-.875C262 140 262 140 261 138"/><path fill="#e75d06" d="M417 132c3.489 1.163 4.1 2.14 6.188 5.063l1.605 2.222L426 141l-5-1-2-6h-2z"/><path fill="#c56e3b" d="m189 123 3 1-9 9c0-3.59.664-4.109 3-6.687l1.688-1.887z"/><path fill="#2271bc" d="M240 119c4.435 1.394 6.874 3.606 10 7l-1 3a1766 1766 0 0 1-4.5-4.437l-2.531-2.497C240 120 240 120 240 119"/><path fill="#0a75e8" d="M201 53q1.943 1.397 3.875 2.813l2.18 1.582C209 59 209 59 211 62c-4 0-4 0-5.703-1.46-.51-.633-1.021-1.264-1.547-1.915l-1.578-1.898C201 55 201 55 201 53"/><path fill="#2062af" d="M147 29c2.11.418 2.11.418 4 1q-1.935 1.722-3.875 3.438l-2.18 1.933C143 37 143 37 141 38l1-4h2v-2c1.25-1.687 1.25-1.687 3-3"/><path fill="#d06325" d="M404 117q1.723 1.432 3.438 2.875l1.933 1.617C411 123 411 123 412 125c-2.312-.187-2.312-.187-5-1-3-4.034-3-4.034-3-7"/><path fill="#ea6617" d="M190.688 96.75 193 97l1 4-3-1-1 1c-1.666.04-3.334.043-5 0 2.338-3.938 2.338-3.938 5.688-4.25"/><path fill="#ea5d0b" d="m330 45 7 6-3 2c-2.9-2.395-3.502-4.312-4-8"/><path fill="#1472b7" d="M165 44h4l1 5h2l-1 3-2-4h-2v-2h-2z"/><path fill="#ca7741" d="m310 274 3 1-2.25 1.75A77 77 0 0 0 304 283c0-3 0-3 1.313-4.605l1.687-1.582 1.688-1.606z"/><path fill="#0c75e4" d="m167 254 1 2c-1.333 4-3.496 4.838-7 7l-2-1z"/><path fill="#d06c35" d="m380 204 2 1c-5.143 6.571-5.143 6.571-9 8 1.555-3.817 4.036-6.192 7-9"/><path fill="#1861d1" d="M49 198c1.875.188 1.875.188 4 1 1.25 2.563 1.25 2.563 2 5h-3l-1-3h-2z"/><path fill="#cf6126" d="M199 184q1.724 1.432 3.438 2.875l1.933 1.617C206 190 206 190 207 192c-3.323-1.168-5.834-2.15-8-5z"/><path fill="#db7032" d="m404 147 3 1c-.176 2.38-.697 3.702-2.402 5.379-1.504 1.242-3.05 2.435-4.598 3.621a296 296 0 0 1 3.125-6.125c1.016-1.832 1.016-1.832.875-3.875"/><path fill="#e9621f" d="M376 115c3 3.75 3 3.75 3 6h3l1 3h-2v-2l-5-1a88 88 0 0 1-1-5z"/><path fill="#1b6eca" d="M149 1c4.355 1.161 6.646 2.077 9 6l-1.812-.937C153.215 4.619 150.198 3.773 147 3z"/><path fill="#106ad8" d="M124 272c3.03 1.72 5.763 3.292 8 6v2l-5-1 1-3-4-2z"/><path fill="#1d74c7" d="m118 238 5 4-1 4-1-2h-2z"/><path fill="#d9672a" d="M344 238h2c-.187 2.313-.187 2.313-1 5-2.562 1.813-2.562 1.813-5 3z"/><path fill="#1e68bd" d="m192 230 5 5-1 3-6-5z"/><path fill="#d65e20" d="M212 227c2.929.628 5.361 1.586 8 3l-1 3c-5.875-3.75-5.875-3.75-7-6"/><path fill="#1959d2" d="M65 214c2.622 1.049 3.794 1.65 5.25 4.125L71 220h-3l-1-3-3-1z"/><path fill="#e86111" d="m180 187 1 7-6-5c3-2 3-2 5-2"/><path fill="#cb6431" d="M412 125q1.723 1.432 3.438 2.875l1.933 1.617C419 131 419 131 420 133l-8-4z"/><path fill="#0a71e1" d="m247 98 7 6-1 3c-3.08-2.773-4.688-5.063-6-9"/><path fill="#c66c40" d="M345 87q1.758 1.428 3.5 2.875l1.969 1.617L352 93v2c-3.795-1.491-5.61-3.757-8-7z"/><path fill="#1c6aba" d="M140 290c3.14.336 4.051 1.052 6.313 3.375L148 296l-1 3q-1.755-1.966-3.5-3.937l-1.969-2.215C140 291 140 291 140 290"/><path fill="#236ebe" d="m160 287 3 1-7 7c0-3.908 1.506-5.116 4-8"/><path fill="#d56731" d="m362 221 1 3c-4.75 4.875-4.75 4.875-7 6 1.527-3.436 3.6-6.12 6-9"/><path fill="#1972ce" d="M85 208c2.938.75 2.938.75 6 2 .875 2.125.875 2.125 1 4-4.677-1.477-4.677-1.477-6.312-4.125z"/><path fill="#0876e8" d="M253 168h2c0 3 0 3-1.25 4.75-1.75 1.25-1.75 1.25-3.937.938L248 173l1.938-.812c2.393-1.075 2.393-1.075 3.062-4.188"/><path fill="#1772d2" d="M293 153h2c-.573 2.867-.861 3.861-3 6l-3-1a105 105 0 0 1 4-5"/><path fill="#0a6edf" d="m229 80 6 4-1 2-6-2z"/><path fill="#e75519" d="m271 40 3 1c-2.174 2.5-3.73 3.436-7 4 1.75-3.875 1.75-3.875 4-5"/><path fill="#2270bc" d="M203 245c0 3 0 3-1.312 4.387L197 253c1.27-3.914 2.512-5.79 6-8"/><path fill="#d16520" d="m206 219 4 1 2 7c-3.488-2.21-4.73-4.086-6-8"/><path fill="#0a77e9" d="m217 69 8 6-3 1a141 141 0 0 1-5-5z"/><path fill="#e4631e" d="M310 51h2a125 125 0 0 1 4 6l-6-2z"/><path fill="#1560d6" d="m172 51 5 1 1 3-3 1v-2l-3-1z"/><path fill="#1067d4" d="m162 38 3 1c1.188 2.563 1.188 2.563 2 5h-4z"/></svg>